<svg width="205" height="42" viewBox="0 0 205 42" fill="none" xmlns="http://www.w3.org/2000/svg">
<path d="M6.4 27.52H20.44V32.72H0.32V2.4H6.4V27.52ZM30.9044 10.84V32.88H24.8244V10.84H30.9044ZM24.7044 3.52C24.7044 2.61333 24.9844 1.86667 25.5444 1.28C26.1044 0.666666 26.8777 0.36 27.8644 0.36C28.851 0.36 29.6244 0.666666 30.1844 1.28C30.7444 1.86667 31.0244 2.61333 31.0244 3.52C31.0244 4.42667 30.7444 5.18667 30.1844 5.8C29.6244 6.38667 28.851 6.68 27.8644 6.68C26.8777 6.68 26.1044 6.38667 25.5444 5.8C24.9844 5.18667 24.7044 4.42667 24.7044 3.52ZM48.6363 32.68H43.5163L34.3163 11.08H40.9163L46.0763 25.08L51.4363 11.08H58.1163L48.6363 32.68ZM67.4278 10.84V32.88H61.3478V10.84H67.4278ZM61.2278 3.52C61.2278 2.61333 61.5078 1.86667 62.0678 1.28C62.6278 0.666666 63.4011 0.36 64.3878 0.36C65.3745 0.36 66.1478 0.666666 66.7078 1.28C67.2678 1.86667 67.5478 2.61333 67.5478 3.52C67.5478 4.42667 67.2678 5.18667 66.7078 5.8C66.1478 6.38667 65.3745 6.68 64.3878 6.68C63.4011 6.68 62.6278 6.38667 62.0678 5.8C61.5078 5.18667 61.2278 4.42667 61.2278 3.52ZM87.6703 21.68C87.6703 17.84 86.0836 15.92 82.9103 15.92C81.657 15.9467 80.5903 16.48 79.7103 17.52C78.8303 18.5333 78.417 19.92 78.4703 21.68V32.68H72.3903V11.08H78.4703V14.52C79.0036 13.5067 79.7636 12.68 80.7503 12.04C81.737 11.4 82.8036 11.08 83.9503 11.08C86.4836 11.08 88.7503 11.8533 90.7503 13.4C92.7503 14.92 93.7503 17.68 93.7503 21.68V32.68H87.6703V21.68ZM107.666 27.88C109.266 27.88 110.559 27.2933 111.546 26.12C112.532 24.92 113.026 23.4667 113.026 21.76C113.026 20.08 112.532 18.6533 111.546 17.48C110.559 16.3067 109.266 15.72 107.666 15.72C106.146 15.72 104.972 16.3333 104.146 17.56C103.319 18.76 102.906 20.16 102.906 21.76C102.906 23.3867 103.319 24.8133 104.146 26.04C104.972 27.2667 106.146 27.88 107.666 27.88ZM96.8256 21.8C96.8256 19.6667 97.2256 17.7867 98.0256 16.16C98.8523 14.5067 100.039 13.2267 101.586 12.32C103.132 11.3867 104.972 10.92 107.106 10.92C108.066 10.92 109.092 11.12 110.186 11.52C111.279 11.8933 112.226 12.5733 113.026 13.56V10.84H119.106V31.36C119.106 34.6933 118.012 37.2267 115.826 38.96C113.666 40.72 110.759 41.6 107.106 41.6C105.026 41.6 103.066 41.2 101.226 40.4C99.3856 39.6267 97.999 38.44 97.0656 36.84L101.666 33.48C102.519 34.52 103.346 35.2667 104.146 35.72C104.972 36.1733 105.959 36.4 107.106 36.4C107.986 36.4 108.879 36.24 109.786 35.92C110.719 35.6267 111.492 35.1733 112.106 34.56C112.719 33.9733 113.026 33.24 113.026 32.36V30C111.452 31.8133 109.479 32.72 107.106 32.72C104.972 32.72 103.132 32.2667 101.586 31.36C100.039 30.4267 98.8523 29.1467 98.0256 27.52C97.2256 25.8667 96.8256 23.96 96.8256 21.8ZM152.695 32.72H146.615V19.76H133.175V32.72H127.095V2.4H133.175V14.56H146.615V2.4H152.695V32.72ZM163.526 22.08C163.526 25.92 165.113 27.84 168.286 27.84C169.539 27.8133 170.606 27.2933 171.486 26.28C172.366 25.24 172.779 23.84 172.726 22.08V11.08H178.806V32.68H172.726V29.24C172.166 30.3333 171.446 31.1867 170.566 31.8C169.686 32.3867 168.579 32.68 167.246 32.68C164.713 32.68 162.446 31.92 160.446 30.4C158.446 28.8533 157.446 26.08 157.446 22.08V11.08H163.526V22.08ZM193.871 27.52C195.071 27.52 196.084 26.9867 196.911 25.92C197.738 24.8267 198.151 23.5067 198.151 21.96C198.151 20.4133 197.738 19.12 196.911 18.08C196.084 17.0133 195.071 16.48 193.871 16.48C192.538 16.48 191.418 17.0133 190.511 18.08C189.604 19.12 189.151 20.4133 189.151 21.96C189.151 22.9733 189.351 23.9067 189.751 24.76C190.178 25.6133 190.751 26.2933 191.471 26.8C192.191 27.28 192.991 27.52 193.871 27.52ZM183.071 1.92H189.151V14.16C189.898 13.36 190.764 12.7467 191.751 12.32C192.738 11.8933 193.658 11.68 194.511 11.68C196.511 11.68 198.244 12.1467 199.711 13.08C201.204 14.0133 202.324 15.2667 203.071 16.84C203.844 18.3867 204.231 20.0933 204.231 21.96C204.231 23.8533 203.844 25.5867 203.071 27.16C202.324 28.7333 201.204 29.9867 199.711 30.92C198.244 31.8533 196.511 32.32 194.511 32.32C193.524 32.32 192.578 32.16 191.671 31.84C190.791 31.4933 189.951 30.8133 189.151 29.8V32.04L183.071 32V1.92Z" fill="#003FB9"/>
</svg>
