<svg width="32" height="32" viewBox="0 0 32 32" fill="none" xmlns="http://www.w3.org/2000/svg">
<path d="M13.3333 28.6667C14.0697 28.6667 14.6667 28.0697 14.6667 27.3333C14.6667 26.597 14.0697 26 13.3333 26C12.597 26 12 26.597 12 27.3333C12 28.0697 12.597 28.6667 13.3333 28.6667Z" fill="#222222" stroke="#222222" stroke-width="2.28571" stroke-linecap="round" stroke-linejoin="round"/>
<path d="M24.0001 28.6667C24.7365 28.6667 25.3334 28.0697 25.3334 27.3333C25.3334 26.597 24.7365 26 24.0001 26C23.2637 26 22.6667 26.597 22.6667 27.3333C22.6667 28.0697 23.2637 28.6667 24.0001 28.6667Z" fill="#222222" stroke="#222222" stroke-width="2.28571" stroke-linecap="round" stroke-linejoin="round"/>
<path d="M3.33374 3.33325H7.33374L9.33374 13.3333L11.3337 21.9999H13.6004H23.8671H26.0004L27.3337 15.3333L28.6671 8.66659H9.46707" stroke="#222222" stroke-width="2.28571" stroke-linecap="round" stroke-linejoin="round"/>
</svg>
