<svg width="24" height="22" viewBox="0 0 24 22" fill="none" xmlns="http://www.w3.org/2000/svg">
<g clip-path="url(#clip0_26_890)">
<path fill-rule="evenodd" clip-rule="evenodd" d="M3.09941 9.9C3.09941 5.6474 6.54681 2.2 10.7994 2.2C15.052 2.2 18.4994 5.6474 18.4994 9.9C18.4994 14.1526 15.052 17.6 10.7994 17.6C6.54681 17.6 3.09941 14.1526 3.09941 9.9ZM10.7994 0C5.33178 0 0.899414 4.43238 0.899414 9.9C0.899414 15.3676 5.33178 19.8 10.7994 19.8C13.2352 19.8 15.4656 18.9203 17.1901 17.4613L21.4065 21.6777C21.8361 22.1073 22.5325 22.1073 22.9621 21.6777C23.3917 21.2481 23.3917 20.5517 22.9621 20.1221L18.7029 15.8628C19.9561 14.2043 20.6994 12.139 20.6994 9.9C20.6994 4.43238 16.267 0 10.7994 0Z" fill="#222222"/>
</g>
<defs>
<clipPath id="clip0_26_890">
<rect width="23.1" height="22" fill="white" transform="translate(0.899902)"/>
</clipPath>
</defs>
</svg>
