<svg width="18" height="18" viewBox="0 0 18 18" fill="none" xmlns="http://www.w3.org/2000/svg">
<g clip-path="url(#clip0_26_994)">
<path fill-rule="evenodd" clip-rule="evenodd" d="M17.0486 2.64863C17.5173 2.18 17.5173 1.4202 17.0486 0.95157C16.58 0.48294 15.8202 0.48294 15.3516 0.95157L9.0001 7.30304L2.64863 0.95157C2.18 0.48294 1.4202 0.48294 0.95157 0.95157C0.48294 1.4202 0.48294 2.18 0.95157 2.64863L7.30304 9.0001L0.95157 15.3516C0.48294 15.8202 0.48294 16.58 0.95157 17.0486C1.4202 17.5173 2.18 17.5173 2.64863 17.0486L9.0001 10.6972L15.3516 17.0486C15.8202 17.5173 16.58 17.5173 17.0486 17.0486C17.5173 16.58 17.5173 15.8202 17.0486 15.3516L10.6972 9.0001L17.0486 2.64863Z" fill="#222222"/>
</g>
<defs>
<clipPath id="clip0_26_994">
<rect width="18" height="18" fill="white"/>
</clipPath>
</defs>
</svg>
